Coordinates
version=1
nRows=4
nColumns=114
inDegrees=yes

Units are S.I. units (second, meters, Newtons, ...)
If the header above contains a line with 'inDegrees', this indicates whether rotational values are in degrees (yes) or radians (no).

endheader 
time	pelvis_tilt	pelvis_list	pelvis_rotation	pelvis_tx	pelvis_ty	pelvis_tz	hip_flexion_l	hip_adduction_l	hip_rotation_l	hip_flexion_r	hip_adduction_r	hip_rotation_r	knee_angle_l	knee_angle_r	ankle_angle_l	ankle_angle_r	subtalar_angle_l	subtalar_angle_r	mtp_angle_l	mtp_angle_r	lumbar_extension	lumbar_bending	lumbar_rotation	arm_flex_l	arm_add_l	arm_rot_l	arm_flex_r	arm_add_r	arm_rot_r	elbow_flex_l	elbow_flex_r	pro_sup_l	pro_sup_r	addbrev_l/activation	addlong_l/activation	addmagDist_l/activation	addmagIsch_l/activation	addmagMid_l/activation	addmagProx_l/activation	bflh_l/activation	bfsh_l/activation	edl_l/activation	ehl_l/activation	fdl_l/activation	fhl_l/activation	gaslat_l/activation	gasmed_l/activation	glmax1_l/activation	glmax2_l/activation	glmax3_l/activation	glmed1_l/activation	glmed2_l/activation	glmed3_l/activation	glmin1_l/activation	glmin2_l/activation	glmin3_l/activation	grac_l/activation	iliacus_l/activation	perbrev_l/activation	perlong_l/activation	piri_l/activation	psoas_l/activation	recfem_l/activation	sart_l/activation	semimem_l/activation	semiten_l/activation	soleus_l/activation	tfl_l/activation	tibant_l/activation	tibpost_l/activation	vasint_l/activation	vaslat_l/activation	vasmed_l/activation	addbrev_r/activation	addlong_r/activation	addmagDist_r/activation	addmagIsch_r/activation	addmagMid_r/activation	addmagProx_r/activation	bflh_r/activation	bfsh_r/activation	edl_r/activation	ehl_r/activation	fdl_r/activation	fhl_r/activation	gaslat_r/activation	gasmed_r/activation	glmax1_r/activation	glmax2_r/activation	glmax3_r/activation	glmed1_r/activation	glmed2_r/activation	glmed3_r/activation	glmin1_r/activation	glmin2_r/activation	glmin3_r/activation	grac_r/activation	iliacus_r/activation	perbrev_r/activation	perlong_r/activation	piri_r/activation	psoas_r/activation	recfem_r/activation	sart_r/activation	semimem_r/activation	semiten_r/activation	soleus_r/activation	tfl_r/activation	tibant_r/activation	tibpost_r/activation	vasint_r/activation	vaslat_r/activation	vasmed_r/activation	
          3.00000000	         -0.66419366	         -1.66501099	          5.14659668	          1.13624695	          0.90522591	         -0.30106534	         -3.05270753	         -3.10881452	         -6.36334728	          5.79625528	          5.10649832	         -9.97103014	         28.21815433	          3.38079052	          2.72341249	          1.08498098	          4.22714041	         -6.44036143	        -30.60368824	         -3.29078034	         -4.34753169	          3.82783238	         -1.91932940	          1.93365029	        -12.72626251	         21.25044979	         -0.28415121	         -9.85954729	          4.39821370	         32.40178480	         26.05467759	         78.65880227	         71.10459268	          0.13096946	          0.25551855	          0.04824922	          0.02250263	          0.09842287	          0.11081396	          0.02463579	          0.04293889	          0.02335863	          0.04332657	          0.06457423	          0.07019345	          0.04202241	          0.04107193	          0.02239013	          0.01615788	          0.03371578	          0.01896249	          0.01718167	          0.03343179	          0.02176509	          0.02708402	          0.04218255	          0.08137217	          0.06360641	          0.01663061	          0.01387307	          0.08566240	          0.08273930	          0.11512469	          0.04934309	          0.01665211	          0.02371365	          0.04514576	          0.02805466	          0.12011998	          0.10332531	          0.02439386	          0.01786258	          0.02230379	          0.01957420	          0.01876575	          0.02764857	          0.04867836	          0.02304186	          0.02139549	          0.07513746	          0.04787357	          0.02447567	          0.05172354	          0.11352335	          0.17008600	          0.10765911	          0.04141609	          0.06945127	          0.11472573	          0.03438620	          0.19197669	          0.10008809	          0.07006564	          0.08137122	          0.06930617	          0.05935077	          0.02460754	          0.02021726	          0.01457742	          0.01219300	          0.02819562	          0.01749312	          0.01455529	          0.03434297	          0.19123079	          0.07961669	          0.04052862	          0.09977365	          0.24304955	          0.37667941	          0.02091718	          0.01400976	          0.01770125	
          3.01000000	         -0.81861237	         -1.52663797	          5.08667095	          1.14056597	          0.90444386	         -0.29938394	         -2.62024808	         -3.13391949	         -6.26456362	          5.57837840	          5.09432648	         -9.85573144	         29.37548827	          3.27234578	          3.40362014	          1.44506476	          4.09085104	         -6.23116250	        -29.17387748	         -3.81281840	         -4.12837261	          3.79251452	         -1.73404827	          1.74910884	        -12.76396331	         21.10551213	         -0.11750670	        -10.01904191	          4.60693361	         32.08300953	         26.30759131	         78.65435978	         71.12387047	          0.13940142	          0.27043290	          0.04225656	          0.02213565	          0.10150809	          0.11914825	          0.02392262	          0.04346374	          0.02337118	          0.04906879	          0.06561007	          0.06168065	          0.03531391	          0.03435191	          0.02205671	          0.01661845	          0.03008720	          0.01627236	          0.01656140	          0.03559974	          0.01928546	          0.02502245	          0.04221612	          0.08791705	          0.05960847	          0.01541687	          0.01300138	          0.09884217	          0.08384863	          0.09886772	          0.04897615	          0.01726633	          0.02288536	          0.03766088	          0.02462332	          0.18022996	          0.08933713	          0.02207984	          0.01643076	          0.02008354	          0.01692394	          0.01598081	          0.02399835	          0.04462722	          0.02009285	          0.01872672	          0.06343601	          0.04740977	          0.02125499	          0.05360553	          0.12441948	          0.18926517	          0.12049405	          0.03968962	          0.06460872	          0.11764098	          0.02916774	          0.26659317	          0.11675392	          0.06718857	          0.10556016	          0.08250568	          0.06351561	          0.02157655	          0.02060182	          0.01348686	          0.01164820	          0.02443298	          0.01655661	          0.01481118	          0.03373760	          0.19823962	          0.07642679	          0.05397427	          0.12482517	          0.27569771	          0.40077911	          0.02072258	          0.01384684	          0.01752948	
          3.02000000	         -0.97671956	         -1.37340372	          5.02393417	          1.14482216	          0.90379317	         -0.29767550	         -2.14023040	         -3.13261812	         -6.11794187	          5.36734074	          5.06243652	         -9.71302572	         30.59520773	          3.16304248	          4.11232303	          1.79444677	          3.90204816	         -5.99595657	        -27.53795204	         -4.34852628	         -3.89983989	          3.72108377	         -1.54632704	          1.56092510	        -12.81301058	         20.95111955	          0.04633926	        -10.16546211	          4.82366433	         31.76171327	         26.55055690	         78.64499080	         71.14426554	          0.14837225	          0.29313023	          0.03643622	          0.02043497	          0.08857677	          0.12905339	          0.02155186	          0.04385022	          0.02486219	          0.05727964	          0.05781730	          0.05273105	          0.02964726	          0.02873169	          0.02064113	          0.01605276	          0.02593293	          0.01417416	          0.01583113	          0.03699217	          0.01738541	          0.02331854	          0.04309248	          0.09623648	          0.05810177	          0.01437702	          0.01229774	          0.11802240	          0.08989658	          0.09020858	          0.04998533	          0.01670979	          0.02133437	          0.03141653	          0.02204511	          0.23762167	          0.07523292	          0.01954511	          0.01465946	          0.01773321	          0.01488602	          0.01379058	          0.02104244	          0.04138667	          0.01775621	          0.01662097	          0.05368145	          0.04736085	          0.01869156	          0.05583881	          0.13369545	          0.20579585	          0.13268575	          0.03721663	          0.05856141	          0.11990082	          0.02481510	          0.34713179	          0.13085449	          0.06063770	          0.13369283	          0.09554739	          0.06554485	          0.01915559	          0.02098536	          0.01266253	          0.01129519	          0.02118383	          0.01577645	          0.01462128	          0.03254937	          0.21725652	          0.07639468	          0.06438139	          0.14745301	          0.30652654	          0.41952547	          0.02020876	          0.01364247	          0.01715198	
          3.03000000	         -1.13808445	         -1.20630869	          4.95910015	          1.14899730	          0.90329933	         -0.29595290	         -1.59956747	         -3.10157985	         -5.91648354	          5.16033289	          5.01150888	         -9.54284986	         31.88874657	          3.04681543	          4.82104751	          2.13061079	          3.64354428	         -5.73286746	        -25.72675061	         -4.87238988	         -3.66398309	          3.61582876	         -1.35794929	          1.36826813	        -12.87317135	         20.78770497	          0.20814355	        -10.29814631	          5.04654925	         31.44060773	         26.78231962	         78.63024387	         71.16542220	          0.15703568	          0.32094180	          0.03100334	          0.01795563	          0.07485300	          0.13769523	          0.01864767	          0.04918668	          0.06828737	          0.06786946	          0.04981346	          0.04467489	          0.02498491	          0.02406420	          0.01846469	          0.01440162	          0.02199015	          0.01274078	          0.01533631	          0.03657228	          0.01623978	          0.02284249	          0.04753516	          0.10631983	          0.06309442	          0.01352939	          0.01171932	          0.13702514	          0.10586867	          0.08826650	          0.05644476	          0.01496787	          0.01905115	          0.02621067	          0.02450831	          0.26717046	          0.06297077	          0.01691153	          0.01262000	          0.01529135	          0.01341872	          0.01220262	          0.01873211	          0.03934879	          0.01596036	          0.01497395	          0.04554504	          0.04766838	          0.01674572	          0.05803080	          0.13904461	          0.21592024	          0.14367628	          0.03500670	          0.05196151	          0.12314000	          0.02120740	          0.42913722	          0.13819237	          0.05292165	          0.16327847	          0.10534568	          0.06390718	          0.01727863	          0.02101112	          0.01223196	          0.01113427	          0.01835526	          0.01506258	          0.01412796	          0.03057951	          0.23000714	          0.08747956	          0.06977328	          0.17120122	          0.32331035	          0.42751185	          0.01954957	          0.01345355	          0.01672396	
